<?xml version="1.0" standalone="no"?>
<!DOCTYPE svg PUBLIC "-//W3C//DTD SVG 20010904//EN"
 "http://www.w3.org/TR/2001/REC-SVG-20010904/DTD/svg10.dtd">
<svg version="1.0" xmlns="http://www.w3.org/2000/svg"
 width="1024.000000pt" height="1024.000000pt" viewBox="0 0 1024.000000 1024.000000"
 preserveAspectRatio="xMidYMid meet">
<metadata>
Created by potrace 1.14, written by Peter Selinger 2001-2017
</metadata>
<g transform="translate(0.000000,1024.000000) scale(0.100000,-0.100000)"
fill="#000000" stroke="none">
<path d="M0 5120 l0 -5120 4720 0 4720 0 0 80 0 80 320 0 320 0 0 -80 0 -80
80 0 80 0 0 5120 0 5120 -5120 0 -5120 0 0 -5120z m5412 3370 c641 -78 1223
-361 1671 -814 424 -429 698 -969 794 -1569 26 -162 26 -634 0 -792 -69 -414
-222 -806 -443 -1135 -94 -141 -92 -138 -178 -240 -135 -161 -372 -383 -501
-470 -27 -18 -75 -50 -105 -70 -440 -295 -981 -452 -1550 -452 -879 1 -1574
319 -2150 983 -128 147 -272 365 -364 548 -307 611 -379 1307 -202 1953 83
301 194 544 373 818 102 155 198 271 368 444 134 136 270 245 463 370 104 67
106 68 283 157 292 147 685 254 1024 279 127 10 395 4 517 -10z m1713 -5791
l0 -84 -690 -6 c-379 -3 -1297 -10 -2038 -14 l-1348 -8 3 84 3 84 925 7 c1753
15 3125 24 3135 23 6 -1 10 -37 10 -86z m-2471 -598 c7 -6 20 -10 27 -8 8 2
10 2 6 -1 -12 -6 23 -42 41 -42 12 0 12 -3 2 -15 -7 -8 -28 -15 -47 -15 -18 0
-50 7 -70 15 -50 21 -93 19 -120 -7 -50 -46 -15 -96 96 -138 102 -38 144 -98
127 -182 -14 -71 -80 -111 -180 -110 -53 0 -166 36 -166 53 0 5 7 27 16 49 19
48 61 66 78 35 21 -36 55 -65 78 -65 37 0 68 27 68 59 0 36 -27 60 -118 105
-89 45 -132 97 -132 161 0 32 6 48 26 69 15 14 29 26 33 26 3 1 29 7 56 15 55
16 158 14 179 -4z m1358 -15 c120 -61 177 -218 120 -331 -51 -103 -140 -159
-252 -160 -133 0 -229 67 -270 189 -22 66 -19 111 13 201 17 48 86 102 156
122 71 20 170 11 233 -21z m-1844 -33 c44 -87 97 -216 136 -328 40 -116 37
-130 -31 -119 -37 6 -41 10 -52 48 -29 100 -24 96 -111 96 l-77 0 -28 -75 -27
-75 -39 0 c-25 0 -42 5 -45 14 -5 12 93 274 147 393 10 23 19 44 19 47 0 2 4
16 10 30 7 20 16 26 40 26 26 0 33 -7 58 -57z m980 20 l-3 -38 -83 -3 -82 -3
4 -46 c3 -30 1 -41 -5 -32 -5 9 -9 -56 -9 -169 l0 -183 -42 3 -43 3 -2 199
c-1 109 -4 205 -7 212 -4 10 -24 14 -66 14 -33 0 -60 4 -60 10 0 6 5 10 12 10
6 0 4 7 -5 18 -36 40 -26 42 189 42 l205 0 -3 -37z m322 18 c51 -27 75 -65 74
-114 -1 -53 -41 -119 -82 -136 l-31 -13 46 -56 c25 -32 66 -80 90 -108 23 -28
43 -54 43 -58 0 -3 -22 -6 -50 -6 l-49 0 -71 85 c-73 88 -94 105 -129 105 -20
0 -21 -6 -21 -90 l0 -90 -50 0 -50 0 2 250 3 250 120 0 c98 0 127 -3 155 -19z
m-936 -98 c-5 -5 -12 -12 -16 -18 -4 -6 -8 -2 -8 8 0 9 7 17 17 17 9 0 12 -3
7 -7z m458 -231 c2 -84 0 -152 -4 -152 -5 0 -8 71 -8 157 0 86 2 154 5 152 2
-3 5 -73 7 -157z"/>
<path d="M4890 8090 c-253 -24 -520 -94 -765 -201 -137 -59 -179 -82 -335
-184 -607 -396 -1000 -1049 -1089 -1810 -14 -115 -14 -355 0 -510 42 -488 286
-975 685 -1367 331 -325 701 -535 1129 -642 169 -42 298 -57 530 -63 329 -8
552 25 858 127 640 214 1219 773 1466 1415 77 201 117 388 133 623 43 624
-173 1288 -573 1757 -70 83 -241 254 -295 296 -17 13 -62 49 -100 79 -289 231
-653 386 -1069 456 -165 28 -423 39 -575 24z m376 -648 c66 -33 123 -86 159
-147 13 -22 65 -132 115 -245 51 -113 132 -295 181 -405 50 -110 94 -209 99
-220 5 -11 34 -75 64 -142 31 -67 56 -125 56 -128 0 -4 15 -39 34 -78 103
-215 567 -1242 697 -1542 43 -99 44 -101 44 -220 0 -86 -5 -136 -17 -176 -40
-129 -141 -203 -274 -203 -64 0 -80 4 -155 41 -88 44 -135 81 -309 243 -329
305 -452 393 -640 460 -57 21 -84 24 -215 24 -171 1 -221 -11 -375 -90 -70
-36 -251 -166 -270 -194 -3 -4 -43 -40 -90 -81 -47 -41 -96 -85 -110 -99 -134
-132 -266 -235 -356 -276 -111 -51 -238 -36 -326 38 -55 46 -108 202 -108 317
0 105 14 139 440 1076 37 83 86 191 108 240 22 50 82 180 132 290 51 110 145
319 210 465 65 146 151 339 193 430 41 91 89 199 107 240 120 280 178 354 313
402 82 29 213 20 293 -20z"/>
<path d="M5769 1999 c-50 -29 -72 -71 -72 -135 0 -159 188 -231 305 -117 86
84 64 194 -52 253 -53 27 -133 26 -181 -1z"/>
<path d="M4087 1926 c-15 -34 -27 -64 -27 -68 0 -5 23 -8 50 -8 28 0 50 1 50
3 0 1 -10 32 -23 68 l-22 66 -28 -61z"/>
<path d="M4915 1840 c3 -5 8 -10 11 -10 2 0 4 5 4 10 0 6 -5 10 -11 10 -5 0
-7 -4 -4 -10z"/>
<path d="M5298 2024 c-5 -4 -8 -34 -8 -66 l0 -58 55 0 c71 0 102 15 111 53 10
45 -21 70 -93 75 -32 2 -61 0 -65 -4z"/>
</g>
</svg>
